<svg xmlns="http://www.w3.org/2000/svg" width="430" height="284" viewBox="0 0 430 284"><title>NOVA sleep</title><defs>
<linearGradient id="shell" x1="0" y1="0" x2="1" y2="1"><stop stop-color="#38555E"/><stop offset=".45" stop-color="#223840"/><stop offset="1" stop-color="#14252B"/></linearGradient>
<linearGradient id="visor" x1="0" y1="0" x2="0" y2="1"><stop stop-color="#14262C"/><stop offset="1" stop-color="#071014"/></linearGradient>
<radialGradient id="glow"><stop stop-color="#7EADB9" stop-opacity=".05"/><stop offset=".55" stop-color="#7EADB9" stop-opacity=".02"/><stop offset="1" stop-color="#7EADB9" stop-opacity="0"/></radialGradient>
<radialGradient id="ant" cx=".35" cy=".3" r=".85"><stop stop-color="#C9E7EE"/><stop offset=".55" stop-color="#7EADB9"/><stop offset="1" stop-color="#47707B"/></radialGradient>
<clipPath id="vc"><rect x="148" y="166" width="170" height="85" rx="28"/></clipPath>
</defs><g font-family="Segoe UI, Arial, sans-serif" transform="translate(-20 -90)"><ellipse cx="233" cy="240" rx="190" ry="150" fill="url(#glow)"/><ellipse cx="233" cy="366" rx="118" ry="14" fill="#0B161B"/><ellipse cx="233" cy="364" rx="95" ry="11" fill="#071014"/><path d="M170 288 L143 304 L128 319 M295 288 L325 304 L337 318" fill="none" stroke="#3C5963" stroke-width="17" stroke-linecap="round"/><circle cx="125" cy="321" r="15" fill="#496A74" stroke="#2A3F47" stroke-width="3"/><circle cx="340" cy="321" r="15" fill="#496A74" stroke="#2A3F47" stroke-width="3"/><path d="M191 318 V349 M275 318 V349" stroke="#3C5963" stroke-width="23" stroke-linecap="round"/><rect x="164" y="342" width="59" height="22" rx="11" fill="#29444E" stroke="#496771"/><rect x="245" y="342" width="59" height="22" rx="11" fill="#29444E" stroke="#496771"/><circle cx="193" cy="353" r="4.5" fill="#1B343D"/><circle cx="274" cy="353" r="4.5" fill="#1B343D"/><rect x="165" y="263" width="137" height="72" rx="24" fill="url(#shell)" stroke="#476570"/><rect x="185" y="278" width="97" height="35" rx="11" fill="#0A171C" stroke="#31515C"/><path d="M243 283 A14 14 0 1 0 248 307 A12 12 0 0 1 243 283" fill="#7EADB9"/><path d="M233 154 V133" stroke="#496771" stroke-width="7" stroke-linecap="round"/><circle cx="233" cy="122" r="26" fill="none" stroke="#7EADB9" stroke-opacity=".08"/><circle cx="233" cy="122" r="17" fill="none" stroke="#7EADB9" stroke-opacity=".18"/><circle cx="233" cy="122" r="9" fill="url(#ant)"/><circle cx="230" cy="119" r="2.6" fill="#EAF6FA" opacity=".8"/><rect x="132" y="150" width="202" height="119" rx="42" fill="url(#shell)" stroke="#587581"/><path d="M139 192 A35 35 0 0 1 174 157 L232 157" fill="none" stroke="#9FC3CD" stroke-opacity=".22" stroke-width="2.5" stroke-linecap="round"/><rect x="148" y="166" width="170" height="85" rx="28" fill="url(#visor)" stroke="#263E47"/><polygon points="196,166 244,166 200,251 160,251" fill="#D5E6EB" opacity=".035" clip-path="url(#vc)"/><polygon points="258,166 274,166 230,251 218,251" fill="#D5E6EB" opacity=".022" clip-path="url(#vc)"/><path d="M181 205 H211 M256 205 H286" stroke="#7EADB9" stroke-width="7" stroke-linecap="round"/><path d="M223 229 H245" stroke="#7EADB9" stroke-width="3" stroke-linecap="round"/><text x="339" y="162" font-size="24" fill="#7EADB9" font-weight="600" text-anchor="start" opacity=".45">z</text><text x="363" y="138" font-size="30" fill="#7EADB9" font-weight="600" text-anchor="start" opacity=".7">z</text><text x="388" y="108" font-size="36" fill="#7EADB9" font-weight="600" text-anchor="start">z</text></g></svg>
